<?xml version="1.0" standalone="no"?><!DOCTYPE svg PUBLIC "-//W3C//DTD SVG 1.1//EN" "http://www.w3.org/Graphics/SVG/1.1/DTD/svg11.dtd"><svg t="1584525371610" class="icon" viewBox="0 0 1024 1024" version="1.1" xmlns="http://www.w3.org/2000/svg" p-id="6624" xmlns:xlink="http://www.w3.org/1999/xlink" width="128" height="128"><defs><style type="text/css"></style></defs><path d="M307.2 430.08a40.96 40.96 0 1 1 40.96 40.96 40.96 40.96 0 0 1-40.96-40.96z m141.45536 202.752l128.59392-128.59392a39.89504 39.89504 0 0 1 56.40192 0l156.8768 156.99968a39.87456 39.87456 0 0 1-56.38144 56.38144l-128.79872-128.79872-128.69632 128.79872a39.87456 39.87456 0 0 1-56.38144 0c-0.43008-0.34816-0.43008-0.8192-0.8192-1.20832l-54.21056-54.19008-59.63776 59.63776a40.96 40.96 0 1 1-57.91744-57.91744l86.89664-86.89664a40.79616 40.79616 0 0 1 7.33184-5.71392 39.87456 39.87456 0 0 1 50.23744 5.0176zM901.12 798.72a40.96 40.96 0 0 1-40.96-40.96V225.28a122.88 122.88 0 0 0-122.88-122.88H286.72a122.88 122.88 0 0 0-122.88 122.88v573.44a122.88 122.88 0 0 0 122.88 122.88h573.44a40.96 40.96 0 0 1 0 81.92H286.72A204.8 204.8 0 0 1 81.92 798.72V225.28A204.8 204.8 0 0 1 286.72 20.48h450.56a204.8 204.8 0 0 1 204.8 204.8v532.48a40.96 40.96 0 0 1-40.96 40.96z" p-id="6625"></path></svg>