<?xml version="1.0" standalone="no"?><!DOCTYPE svg PUBLIC "-//W3C//DTD SVG 1.1//EN" "http://www.w3.org/Graphics/SVG/1.1/DTD/svg11.dtd"><svg t="1584525646713" class="icon" viewBox="0 0 1024 1024" version="1.1" xmlns="http://www.w3.org/2000/svg" p-id="7625" xmlns:xlink="http://www.w3.org/1999/xlink" width="128" height="128"><defs><style type="text/css"></style></defs><path d="M523.159154 424.582021l53.93847 0c-9.299807-22.319331-18.599613-42.778292-27.89942-63.238276l24.179702-9.299807-63.238276 3.719718 35.338856 53.93847C536.178679 413.422867 528.739243 419.002956 523.159154 424.582021z" p-id="7626"></path><path d="M683.113169 523.159154 683.113169 476.661144 502.69917 476.661144 502.69917 510.139629 673.813363 510.139629Z" p-id="7627"></path><path d="M662.654208 424.582021l-26.03905-11.159154c13.019525-18.599613 24.179702-40.917922 31.619138-68.817342l-68.817342 5.580089c3.719718 5.580089 13.019525 24.179702 27.89942 57.658188-16.739243 7.439436-29.758768 13.019525-35.338856 16.739243l70.676689 0L662.654208 424.582021z" p-id="7628"></path><path d="M817.028135 115.833145c-98.576109-33.478486-200.87296-50.217728-305.029158-50.217728S305.545928 82.35466 206.970842 115.833145c-48.358381 14.878872-83.696214 61.377906-83.696214 111.595634l0 355.246887c0 42.778292 24.179702 111.595634 59.518558 150.654208 145.073096 148.795884 236.210793 225.052662 329.206814 225.052662s184.133717-76.256778 329.207837-225.051639c37.198204-39.058574 59.518558-107.875916 59.518558-150.654208L900.726396 227.429803C900.725372 179.071422 863.526145 128.853693 817.028135 115.833145zM394.823254 705.432501c0 11.159154-5.580089 18.599613-14.878872 24.179702-14.878872 7.439436-39.058574 13.019525-72.53706 14.878872-1.860371-24.179702-7.439436-44.638663-14.878872-63.238276 9.299807 1.859347 18.599613 1.859347 22.319331 1.859347 14.878872 0 22.319331-5.580089 22.319331-18.599613l0-92.997044c-1.860371 0-14.878872 5.580089-42.778292 18.599613-3.719718-18.599613-11.159154-39.058574-18.599613-61.377906 22.319331-3.719718 42.778292-11.159154 61.377906-18.599613l0-83.696214-57.658188 1.860371 0-55.79884 57.658188 1.860371c0-35.338856 0-68.817342-1.860371-94.857415l59.518558 0c-1.860371 27.89942-1.860371 59.518558-1.860371 94.857415l37.198204-1.860371 0 55.79884c-13.019525 0-26.03905-1.860371-37.198204-1.860371l0 61.377906c13.019525-5.580089 26.03905-11.159154 39.058574-18.599613-1.860371 14.878872-3.719718 35.338856-3.719718 61.377906-3.719718 1.860371-7.439436 3.719718-11.159154 3.719718l-22.319331 14.878872L394.8253 705.432501 394.823254 705.432501zM720.311373 748.211816c-52.079122-11.159154-98.577133-33.478486-141.355425-63.238276-42.778292 29.758768-89.277326 50.217728-137.635707 61.377906-7.439436-20.459984-16.739243-40.917922-31.619138-59.518558 42.778292-1.859347 83.696214-14.878872 122.755812-40.917922-14.878872-18.599613-31.619138-39.058574-46.49801-66.957994 11.161201-5.579065 26.041096-11.158131 40.919968-20.458961-14.878872 0-27.89942 0-42.778292 1.860371l0-35.338856-40.917922 0 0-102.296851 44.63764 1.860371c-7.439436-13.019525-16.739243-29.758768-29.758768-48.358381 11.159154-3.719718 22.319331-11.159154 35.338856-18.599613-13.019525 0-26.03905 1.860371-39.058574 1.860371-3.719718-13.019525-11.159154-33.478486-22.319331-59.518558 102.296851 7.439436 189.712783 0 260.390495-24.179702 7.439436 13.019525 18.599613 27.89942 33.478486 46.49801l9.299807 11.159154c-22.319331 3.719718-42.778292 7.439436-65.097624 9.299807 13.019525 5.580089 29.758768 13.019525 50.217728 20.459984-9.299807 18.599613-18.599613 39.058574-29.758768 61.377906l50.217728-1.860371c-1.860371 26.03905-1.860371 59.518558 0 104.156198l-53.93847 0 9.299807 11.159154c-16.739243 39.058574-42.778292 76.256778-72.53706 109.736287 37.198204 24.179702 78.117149 37.198204 124.616182 40.917922C731.47155 718.453049 722.171744 738.91201 720.311373 748.211816z" p-id="7629"></path><path d="M577.096601 612.43648c20.459984-22.319331 33.478486-40.917922 40.917922-53.93847L538.038026 558.49801C552.917922 584.53706 565.937446 601.276303 577.096601 612.43648z" p-id="7630"></path></svg>