<?xml version="1.0" standalone="no"?><!DOCTYPE svg PUBLIC "-//W3C//DTD SVG 1.1//EN" "http://www.w3.org/Graphics/SVG/1.1/DTD/svg11.dtd"><svg t="1584525306714" class="icon" viewBox="0 0 1024 1024" version="1.1" xmlns="http://www.w3.org/2000/svg" p-id="4221" xmlns:xlink="http://www.w3.org/1999/xlink" width="128" height="128"><defs><style type="text/css"></style></defs><path d="M797.245579 818.916135c-12.899798-12.065803-33.136701-11.388375-45.199435 1.509377-6.729262 7.194866-17.09126 11.490705-27.717272 11.490705L158.3771 831.916217c-11.661597 0-22.962991-5.198395-29.495778-13.568017-5.167696-6.620791-6.743588-14.146185-4.685719-22.369473 34.276664-136.936789 164.696016-232.576009 317.157383-232.576009 34.938744 0 69.307506 5.078669 102.151541 15.093766 16.895809 5.15337 34.764781-4.367471 39.915082-21.259186 4.38589-14.380522-1.864464-29.466102-14.242376-36.81344 51.343365-39.35431 84.626399-102.072747 84.626399-172.591847 0-118.867248-94.559633-215.572754-210.789821-215.572754s-210.789821 96.705506-210.789821 215.572754c0 69.709665 32.530904 131.785465 82.872452 171.2155-1.52268 0.488117-3.048429 0.964978-4.565992 1.471514-40.60172 13.543458-78.332043 33.227776-112.141056 58.506509C130.307811 629.925806 81.925894 701.461049 62.153572 780.448008c-6.78759 27.117614-0.842181 55.274908 16.311501 77.251432 18.656919 23.901363 48.530296 38.172391 79.912028 38.172391l565.951773 0c28.420283 0 55.54813-11.57564 74.42506-31.756261C810.818713 851.216795 810.143331 830.980915 797.245579 818.916135zM443.013813 196.213847c80.963986 0 146.833183 68.014046 146.833183 151.616116S523.977799 499.44608 443.013813 499.44608s-146.833183-68.014046-146.833183-151.616116S362.049826 196.213847 443.013813 196.213847z" p-id="4222"></path><path d="M927.990343 535.526833l0-30.230512c0-46.910403-37.483706-85.074607-83.557044-85.074607l-79.721693 0c-46.073338 0-83.557044 38.164205-83.557044 85.074607l0 30.230512c-21.950941 13.368472-36.640502 37.528732-36.640502 65.055668l0 90.13895c0 41.968857 34.143635 76.113515 76.112492 76.113515l167.891801 0c41.968857 0 76.112492-34.144658 76.112492-76.113515l0-90.13895C964.630844 573.055564 949.941284 548.895305 927.990343 535.526833zM764.711606 473.765187l79.721693 0c16.548908 0 30.011524 14.144138 30.011524 31.530111l0 19.173688L734.700081 524.468986l0-19.173688C734.700081 487.910349 748.162698 473.765187 764.711606 473.765187zM911.085324 690.720428c0 12.444427-10.123568 22.567995-22.566972 22.567995L720.626551 713.288422c-12.443403 0-22.566972-10.123568-22.566972-22.567995l0-90.13895c0-12.444427 10.123568-22.567995 22.566972-22.567995l167.891801 0c12.443403 0 22.566972 10.123568 22.566972 22.567995L911.085324 690.720428z" p-id="4223"></path><path d="M804.572452 645.650953m-26.77276 0a26.163 26.163 0 1 0 53.54552 0 26.163 26.163 0 1 0-53.54552 0Z" p-id="4224"></path></svg>