<?xml version="1.0" standalone="no"?><!DOCTYPE svg PUBLIC "-//W3C//DTD SVG 1.1//EN" "http://www.w3.org/Graphics/SVG/1.1/DTD/svg11.dtd"><svg t="1584495477018" class="icon" viewBox="0 0 1024 1024" version="1.1" xmlns="http://www.w3.org/2000/svg" p-id="2452" xmlns:xlink="http://www.w3.org/1999/xlink" width="128" height="128"><defs><style type="text/css"></style></defs><path d="M512 63.488q93.184 0 174.592 35.328t142.336 95.744 96.256 142.336 35.328 174.08q0 93.184-35.328 174.592t-96.256 142.336-142.336 96.256-174.592 35.328q-92.16 0-174.08-35.328t-142.336-96.256-95.744-142.336-35.328-174.592q0-92.16 35.328-174.08t95.744-142.336 142.336-95.744 174.08-35.328zM446.464 318.464l-192.512 0 0 64.512 192.512 0 0-64.512zM638.976 446.464l-64.512 0 0 128 64.512 0 0-128zM766.976 446.464l-64.512 0 0 128 64.512 0 0-128zM766.976 318.464l-192.512 0 0 64.512 192.512 0 0-64.512zM894.976 574.464l0-256-64.512 0 0 256 64.512 0z" p-id="2453"></path></svg>