<?xml version="1.0" standalone="no"?><!DOCTYPE svg PUBLIC "-//W3C//DTD SVG 1.1//EN" "http://www.w3.org/Graphics/SVG/1.1/DTD/svg11.dtd"><svg t="1584525983181" class="icon" viewBox="0 0 1024 1024" version="1.1" xmlns="http://www.w3.org/2000/svg" p-id="8194" xmlns:xlink="http://www.w3.org/1999/xlink" width="128" height="128"><defs><style type="text/css"></style></defs><path d="M522.666667 650.666667c-70.4 0-128-57.6-128-128s57.6-128 128-128 128 57.6 128 128-57.6 128-128 128z m0-192c-36.266667 0-64 27.733333-64 64s27.733333 64 64 64 64-27.733333 64-64-27.733333-64-64-64zM512 320c-17.066667 0-32-14.933333-32-32v-192c0-17.066667 14.933333-32 32-32s32 14.933333 32 32v192c0 17.066667-14.933333 32-32 32zM512 960c-17.066667 0-32-14.933333-32-32v-192c0-17.066667 14.933333-32 32-32s32 14.933333 32 32v192c0 17.066667-14.933333 32-32 32zM181.333333 778.666667c-70.4 0-128-57.6-128-128s57.6-128 128-128 128 57.6 128 128-57.6 128-128 128z m0-192c-36.266667 0-64 27.733333-64 64s27.733333 64 64 64 64-27.733333 64-64-27.733333-64-64-64zM192 448c-17.066667 0-32-14.933333-32-32v-320C160 78.933333 174.933333 64 192 64s32 14.933333 32 32v320c0 17.066667-14.933333 32-32 32zM192 960c-17.066667 0-32-14.933333-32-32v-64c0-17.066667 14.933333-32 32-32s32 14.933333 32 32v64c0 17.066667-14.933333 32-32 32zM832 512c-70.4 0-128-57.6-128-128s57.6-128 128-128 128 57.6 128 128-57.6 128-128 128z m0-192c-36.266667 0-64 27.733333-64 64s27.733333 64 64 64 64-27.733333 64-64-27.733333-64-64-64zM832 960c-17.066667 0-32-14.933333-32-32v-320c0-17.066667 14.933333-32 32-32s32 14.933333 32 32v320c0 17.066667-14.933333 32-32 32zM832 192c-17.066667 0-32-14.933333-32-32v-64c0-17.066667 14.933333-32 32-32s32 14.933333 32 32v64c0 17.066667-14.933333 32-32 32z" fill="#212121" p-id="8195"></path></svg>