<?xml version="1.0" standalone="no"?><!DOCTYPE svg PUBLIC "-//W3C//DTD SVG 1.1//EN" "http://www.w3.org/Graphics/SVG/1.1/DTD/svg11.dtd"><svg t="1584525184101" class="icon" viewBox="0 0 1024 1024" version="1.1" xmlns="http://www.w3.org/2000/svg" p-id="2792" xmlns:xlink="http://www.w3.org/1999/xlink" width="128" height="128"><defs><style type="text/css"></style></defs><path d="M558.41 658.286h-92.82l-28.379 62.427a18.286 18.286 0 1 1-33.28-15.14L495.36 504.43a18.286 18.286 0 0 1 33.28 0l91.429 201.143a18.286 18.286 0 1 1-33.28 15.14l-28.38-62.427z m-16.64-36.572L512 556.178l-29.77 65.536h59.54zM329.142 128H804.57a18.286 18.286 0 1 1 0 36.571H329.143a91.429 91.429 0 0 0 0 182.858H804.57a18.286 18.286 0 0 1 18.286 18.285v512A18.286 18.286 0 0 1 804.571 896H329.143a128 128 0 0 1-128-128V256a128 128 0 0 1 128-128z m-91.429 217.6V768a91.429 91.429 0 0 0 91.429 91.429h457.143V384H329.143a127.634 127.634 0 0 1-91.429-38.4z m91.429-71.314a18.286 18.286 0 0 1 0-36.572H768a18.286 18.286 0 1 1 0 36.572H329.143z" p-id="2793"></path></svg>