<?xml version="1.0" standalone="no"?><!DOCTYPE svg PUBLIC "-//W3C//DTD SVG 1.1//EN" "http://www.w3.org/Graphics/SVG/1.1/DTD/svg11.dtd"><svg t="1584525346505" class="icon" viewBox="0 0 1024 1024" version="1.1" xmlns="http://www.w3.org/2000/svg" p-id="5758" xmlns:xlink="http://www.w3.org/1999/xlink" width="128" height="128"><defs><style type="text/css"></style></defs><path d="M843.159273 240.081455l-174.545455-186.181818C664.215273 49.210182 658.071273 46.545455 651.636364 46.545455L197.818182 46.545455c-12.846545 0-23.272727 10.426182-23.272727 23.272727l0 884.363636c0 12.846545 10.426182 23.272727 23.272727 23.272727l628.363636 0c12.846545 0 23.272727-10.426182 23.272727-23.272727L849.454545 256C849.454545 250.088727 847.208727 244.398545 843.159273 240.081455zM794.286545 256 651.636364 256 651.636364 103.842909 794.286545 256zM802.909091 930.909091 221.090909 930.909091 221.090909 93.090909l384 0 0 186.181818c0 12.846545 10.426182 23.272727 23.272727 23.272727l174.545455 0L802.909091 930.909091z" p-id="5759"></path></svg>