<?xml version="1.0" standalone="no"?><!DOCTYPE svg PUBLIC "-//W3C//DTD SVG 1.1//EN" "http://www.w3.org/Graphics/SVG/1.1/DTD/svg11.dtd"><svg t="1584525272074" class="icon" viewBox="0 0 1024 1024" version="1.1" xmlns="http://www.w3.org/2000/svg" p-id="3659" xmlns:xlink="http://www.w3.org/1999/xlink" width="128" height="128"><defs><style type="text/css"></style></defs><path d="M652.8 467.2C723.2 422.4 768 345.6 768 256c0-140.8-115.2-256-256-256S256 115.2 256 256c0 89.6 44.8 166.4 115.2 211.2C192 518.4 64 665.6 64 832c0 166.4 198.4 192 448 192 249.6 0 448-19.2 448-192C960 665.6 832 518.4 652.8 467.2zM320 256c0-108.8 83.2-192 192-192s192 83.2 192 192S620.8 448 512 448 320 364.8 320 256zM512 960c-211.2 0-384-19.2-384-128 0-179.2 172.8-320 384-320 211.2 0 384 140.8 384 320C896 940.8 723.2 960 512 960z" p-id="3660"></path></svg>