<?xml version="1.0" standalone="no"?><!DOCTYPE svg PUBLIC "-//W3C//DTD SVG 1.1//EN" "http://www.w3.org/Graphics/SVG/1.1/DTD/svg11.dtd"><svg t="1584525281778" class="icon" viewBox="0 0 1024 1024" version="1.1" xmlns="http://www.w3.org/2000/svg" p-id="3785" xmlns:xlink="http://www.w3.org/1999/xlink" width="128" height="128"><defs><style type="text/css"></style></defs><path d="M670.293333 542.293333a256 256 0 1 0-316.586666 0 426.666667 426.666667 0 0 0-265.386667 349.013334 42.666667 42.666667 0 0 0 85.333333 9.386666 341.333333 341.333333 0 0 1 678.4 0 42.666667 42.666667 0 0 0 42.666667 37.973334h4.693333a42.666667 42.666667 0 0 0 37.546667-46.933334 426.666667 426.666667 0 0 0-266.666667-349.44zM512 512a170.666667 170.666667 0 1 1 170.666667-170.666667 170.666667 170.666667 0 0 1-170.666667 170.666667z" p-id="3786"></path></svg>